<?xml version="1.0" standalone="no"?>
<!DOCTYPE svg PUBLIC "-//W3C//DTD SVG 20010904//EN"
 "http://www.w3.org/TR/2001/REC-SVG-20010904/DTD/svg10.dtd">
<svg version="1.0" xmlns="http://www.w3.org/2000/svg"
 width="500.000000pt" height="500.000000pt" viewBox="0 0 500.000000 500.000000"
 preserveAspectRatio="xMidYMid meet">

<g transform="translate(0.000000,500.000000) scale(0.100000,-0.100000)"
fill="#000000" stroke="none">
<path d="M877 2623 c-4 -3 -6 -27 -6 -52 1 -25 4 -36 6 -23 3 13 12 22 22 22
28 0 46 26 31 45 -13 16 -42 20 -53 8z m46 -9 c11 -11 -5 -34 -24 -34 -12 0
-19 7 -19 20 0 19 28 28 43 14z"/>
<path d="M1232 2580 c0 -41 2 -47 7 -25 9 43 38 45 44 3 l5 -33 -2 35 c-1 28
-5 35 -21 35 -11 0 -23 9 -27 20 -3 11 -6 -4 -6 -35z"/>
<path d="M950 2564 c0 -19 4 -33 8 -30 8 5 4 66 -4 66 -2 0 -4 -16 -4 -36z"/>
<path d="M986 2585 c4 -8 8 -15 10 -15 2 0 4 7 4 15 0 8 -4 15 -10 15 -5 0 -7
-7 -4 -15z"/>
<path d="M1032 2574 c-7 -14 -15 -23 -20 -21 -4 3 -7 -8 -7 -24 0 -16 1 -29 2
-29 5 0 43 93 40 97 -2 2 -9 -8 -15 -23z"/>
<path d="M1071 2573 c0 -18 1 -33 3 -33 2 0 13 -3 23 -6 17 -6 17 -6 1 7 -9 8
-19 25 -21 39 -4 21 -5 20 -6 -7z"/>
<path d="M1123 2565 c0 -22 2 -30 4 -17 2 12 2 30 0 40 -3 9 -5 -1 -4 -23z"/>
<path d="M1160 2586 c0 -7 10 -21 23 -30 l22 -17 -24 5 c-17 3 -21 2 -13 -6
12 -12 42 -4 42 13 0 6 -9 13 -20 16 -25 7 -26 20 -2 26 13 4 11 5 -5 6 -14 1
-23 -5 -23 -13z"/>
<path d="M877 2463 c-4 -3 -7 -26 -7 -50 0 -38 2 -43 23 -42 16 1 18 2 5 6
-13 3 -18 15 -18 43 0 28 5 40 18 43 14 4 14 5 1 6 -9 0 -19 -2 -22 -6z"/>
<path d="M1213 2425 c0 -27 2 -38 4 -22 2 15 2 37 0 50 -2 12 -4 0 -4 -28z"/>
<path d="M932 2440 c10 -16 10 -24 0 -40 -7 -11 -8 -20 -3 -20 14 0 23 37 16
60 -3 11 -11 20 -16 20 -5 0 -4 -9 3 -20z"/>
<path d="M977 2434 c-4 -4 -7 -18 -7 -31 0 -26 26 -41 42 -25 8 8 5 9 -11 5
-17 -4 -21 -1 -21 21 0 19 5 26 19 26 11 0 22 -5 24 -10 3 -6 4 -5 3 2 -3 14
-38 23 -49 12z"/>
<path d="M1050 2433 c0 -22 20 -64 29 -59 10 7 33 66 25 66 -2 0 -9 -12 -15
-27 l-11 -28 -14 30 c-7 17 -13 25 -14 18z"/>
<path d="M1137 2434 c-4 -4 -7 -18 -7 -31 0 -26 26 -41 42 -25 8 8 5 9 -11 5
-17 -4 -21 -1 -21 21 0 19 5 26 19 26 11 0 22 -5 24 -10 3 -6 4 -5 3 2 -3 14
-38 23 -49 12z"/>
<path d="M1251 2426 c-15 -17 1 -56 23 -56 23 0 41 30 29 48 -14 23 -37 26
-52 8z m47 -19 c4 -21 -27 -35 -38 -17 -12 19 0 42 19 38 9 -2 17 -11 19 -21z"/>
<path d="M1330 2417 c0 -20 1 -20 14 -2 8 11 19 16 30 12 20 -8 20 -21 0 -41
-8 -9 -11 -16 -6 -16 5 0 15 7 23 16 18 22 -1 49 -35 50 -20 1 -26 -4 -26 -19z"/>
<path d="M1427 2433 c-4 -3 -7 -17 -7 -29 0 -26 36 -42 53 -25 9 9 6 11 -12 9
-18 -2 -24 3 -27 20 -3 17 1 22 17 22 16 0 20 -4 14 -17 -5 -14 -3 -15 6 -6 6
6 8 16 5 22 -8 12 -39 15 -49 4z"/>
<path d="M1501 2402 c1 -21 3 -29 6 -17 3 11 9 25 14 31 6 8 4 14 -6 18 -12 4
-15 -2 -14 -32z"/>
<path d="M1330 2365 c0 -14 2 -25 4 -25 2 0 6 11 8 25 3 14 1 25 -3 25 -5 0
-9 -11 -9 -25z"/>
</g>
</svg>
