<?xml version="1.0" standalone="no"?>
<!DOCTYPE svg PUBLIC "-//W3C//DTD SVG 20010904//EN"
 "http://www.w3.org/TR/2001/REC-SVG-20010904/DTD/svg10.dtd">
<svg version="1.0" xmlns="http://www.w3.org/2000/svg"
 width="500.000000pt" height="500.000000pt" viewBox="0 0 500.000000 500.000000"
 preserveAspectRatio="xMidYMid meet">

<g transform="translate(0.000000,500.000000) scale(0.100000,-0.100000)"
fill="#000000" stroke="none">
<path d="M870 2581 c0 -28 5 -51 10 -51 6 0 10 9 10 19 0 13 8 21 23 23 16 2
22 10 22 28 0 21 -5 26 -32 28 l-33 3 0 -50z m45 19 c0 -7 -6 -15 -12 -17 -8
-3 -13 4 -13 17 0 13 5 20 13 18 6 -3 12 -11 12 -18z"/>
<path d="M950 2620 c0 -5 5 -10 10 -10 6 0 10 5 10 10 0 6 -4 10 -10 10 -5 0
-10 -4 -10 -10z"/>
<path d="M1220 2580 c0 -53 16 -70 22 -22 4 37 31 35 39 -3 6 -29 7 -29 8 8 1
33 -2 37 -24 37 -16 0 -25 6 -25 15 0 8 -4 15 -10 15 -5 0 -10 -22 -10 -50z"/>
<path d="M500 2571 c0 -55 24 -95 65 -105 21 -5 25 -12 25 -46 l0 -40 53 0
c43 0 58 5 75 23 29 30 29 86 2 115 -27 29 -48 28 -60 -2 -8 -23 -45 -56 -62
-56 -5 0 -8 18 -8 40 l0 40 40 0 40 0 0 40 0 40 -85 0 -85 0 0 -49z"/>
<path d="M950 2565 c0 -19 5 -35 10 -35 6 0 10 16 10 35 0 19 -4 35 -10 35 -5
0 -10 -16 -10 -35z"/>
<path d="M980 2595 c0 -4 7 -19 15 -35 8 -16 12 -36 9 -44 -3 -9 -2 -16 2 -16
12 1 55 100 44 100 -5 0 -15 -10 -21 -22 l-12 -23 -10 23 c-9 20 -27 31 -27
17z"/>
<path d="M1072 2568 c3 -29 7 -33 36 -35 30 -1 32 1 32 33 0 41 -17 46 -22 7
-4 -34 -22 -33 -26 2 -5 37 -24 30 -20 -7z"/>
<path d="M1155 2590 c-8 -14 3 -30 21 -30 8 0 14 -5 14 -11 0 -6 -9 -8 -21 -4
-15 5 -19 4 -15 -4 9 -14 43 -14 52 0 4 7 -4 20 -17 31 l-24 19 24 -6 c16 -5
21 -4 17 4 -9 14 -43 14 -51 1z"/>
<path d="M870 2420 c0 -48 1 -50 28 -50 35 0 52 16 52 50 0 34 -17 50 -52 50
-27 0 -28 -2 -28 -50z m60 -1 c0 -22 -5 -29 -20 -29 -16 0 -20 7 -20 34 0 29
3 33 20 29 14 -4 20 -14 20 -34z"/>
<path d="M1210 2420 c0 -27 5 -50 10 -50 6 0 10 23 10 50 0 28 -4 50 -10 50
-5 0 -10 -22 -10 -50z"/>
<path d="M970 2425 c-26 -31 26 -74 54 -45 8 10 6 12 -11 7 -13 -3 -26 -1 -29
4 -3 5 7 9 21 9 20 0 26 4 23 18 -4 23 -41 27 -58 7z m40 -5 c0 -5 -7 -10 -16
-10 -8 0 -12 5 -9 10 3 6 10 10 16 10 5 0 9 -4 9 -10z"/>
<path d="M1053 2405 c13 -43 32 -45 46 -4 13 38 13 39 2 39 -5 0 -12 -10 -15
-22 l-7 -23 -11 23 c-17 34 -27 26 -15 -13z"/>
<path d="M1130 2425 c-26 -31 26 -74 54 -45 8 10 6 12 -11 7 -13 -3 -26 -1
-29 4 -3 5 7 9 21 9 20 0 26 4 23 18 -4 23 -41 27 -58 7z m40 -5 c0 -5 -7 -10
-16 -10 -8 0 -12 5 -9 10 3 6 10 10 16 10 5 0 9 -4 9 -10z"/>
<path d="M1243 2424 c-9 -24 10 -49 38 -49 20 0 24 5 24 30 0 25 -4 30 -28 33
-18 2 -29 -2 -34 -14z m43 -30 c-5 -13 -10 -14 -18 -6 -6 6 -8 18 -4 28 5 13
10 14 18 6 6 -6 8 -18 4 -28z"/>
<path d="M1320 2391 c0 -28 5 -51 10 -51 6 0 10 6 10 14 0 9 12 16 28 18 23 3
27 8 27 33 0 27 -3 30 -37 33 l-38 3 0 -50z m57 23 c9 -23 -11 -38 -26 -20
-13 16 -7 36 10 36 5 0 12 -7 16 -16z"/>
<path d="M1421 2422 c-19 -35 34 -74 55 -41 4 7 0 9 -14 5 -11 -4 -23 -2 -27
4 -4 6 6 10 24 10 33 0 39 8 19 28 -18 18 -46 15 -57 -6z m44 -2 c3 -5 -1 -10
-9 -10 -9 0 -16 5 -16 10 0 6 4 10 9 10 6 0 13 -4 16 -10z"/>
<path d="M1500 2405 c0 -19 5 -35 10 -35 6 0 10 11 10 25 0 14 5 25 10 25 6 0
10 5 10 10 0 6 -9 10 -20 10 -16 0 -20 -7 -20 -35z"/>
</g>
</svg>
